# xmcd CD database file
#
# Track frame offsets:
#	150
#	13751
#	30048
#	49079
#	75740
#	88630
#	104278
#	120490
#	138843
#	155387
#
# Disc length: 2248 seconds
#
# Revision: 2
# Processed by: cddbd v1.5.2PL0 Copyright (c) Steve Scherf et al.
# Submitted via: CDex 1.77
#
DISCID=6908c60a
DTITLE=Ronny Hinson - ...The Song Lives On
DYEAR=1999
DGENRE=Southern Gospel
TTITLE0=Did It Ever Just Occur To You
TTITLE1=Fountain Of Youth
TTITLE2=A Real Move Of God
TTITLE3=At The Resurrection
TTITLE4=I Believe Your Prayer Can Touch The Throne
TTITLE5=Gethsemane
TTITLE6=Point Of No Concern
TTITLE7=The Apple Of His Eye
TTITLE8=I've Been Back To Calvary Again
TTITLE9=I'm Gonna Make It
EXTD=YEAR: 1999
EXTT0=
EXTT1=
EXTT2=
EXTT3=
EXTT4=
EXTT5=
EXTT6=
EXTT7=
EXTT8=
EXTT9=
PLAYORDER=
